<svg width="11" height="11" viewBox="0 0 11 11" fill="none" xmlns="http://www.w3.org/2000/svg">
<path d="M10.8995 8.83703L7.56244 5.5L10.8995 2.16297C10.9356 2.12688 10.9613 2.08494 10.9782 2.04025C11.0239 1.91788 10.9978 1.77523 10.8995 1.67692L9.32308 0.100525C9.22477 0.00221545 9.08178 -0.0235651 8.95975 0.0218086C8.91506 0.0383082 8.87313 0.0644325 8.83703 0.100181L5.5 3.43721L2.16297 0.100181C2.12688 0.0644325 2.08494 0.0383082 2.04025 0.0218086C1.91788 -0.0239088 1.77523 0.00221545 1.67692 0.100525L0.100525 1.67692C0.00221545 1.77523 -0.0235651 1.91822 0.0218086 2.04025C0.0386519 2.08494 0.0644325 2.12688 0.100525 2.16297L3.43756 5.5L0.100525 8.83703C0.0647762 8.87313 0.0386519 8.91506 0.0218086 8.95975C-0.0239088 9.08178 0.00221545 9.22477 0.100525 9.32308L1.67692 10.8995C1.77523 10.9978 1.91822 11.0236 2.04025 10.9782C2.08494 10.9613 2.12688 10.9356 2.16297 10.8995L5.5 7.56244L8.83703 10.8995C8.87313 10.9356 8.91506 10.9613 8.95975 10.9782C9.08212 11.0239 9.22477 10.9978 9.32308 10.8995L10.8995 9.32308C10.9978 9.22477 11.0239 9.08178 10.9782 8.95975C10.9613 8.91506 10.9356 8.87313 10.8995 8.83703Z" fill="#005EA5"/>
</svg>
