<svg width="34" height="34" viewBox="0 0 34 34" fill="none" xmlns="http://www.w3.org/2000/svg">
<circle cx="17" cy="17" r="15.5" fill="black" stroke="black" stroke-width="3"/>
<circle cx="17" cy="17" r="15.5" fill="#1D70B8" stroke="#1D70B8" stroke-width="3"/>
<path d="M19.1338 9.69629V23H16.3784V14.2051H13.9663V11.7744H14.5601C14.9559 11.7744 15.2775 11.7404 15.5249 11.6724C15.7785 11.5981 15.9764 11.4868 16.1187 11.3384C16.2609 11.1899 16.3568 11.0013 16.4062 10.7725C16.4557 10.5374 16.4805 10.256 16.4805 9.92822V9.69629H19.1338Z" fill="white"/>
<circle cx="17" cy="17" r="16.5" fill="white" stroke="#B1B4B6"/>
<path d="M19.1338 9.69629V23H16.3784V14.2051H13.9663V11.7744H14.5601C14.9559 11.7744 15.2775 11.7404 15.5249 11.6724C15.7785 11.5981 15.9764 11.4868 16.1187 11.3384C16.2609 11.1899 16.3568 11.0013 16.4062 10.7725C16.4557 10.5374 16.4805 10.256 16.4805 9.92822V9.69629H19.1338Z" fill="#0B0C0C"/>
</svg>
